<?xml version="1.0" encoding="utf-8"?>
<!-- Generator: Adobe Illustrator 24.1.3, SVG Export Plug-In . SVG Version: 6.00 Build 0)  -->
<svg version="1.1" id="Capa_1" xmlns="http://www.w3.org/2000/svg" xmlns:xlink="http://www.w3.org/1999/xlink" x="0px" y="0px"
	 viewBox="0 0 500 122" style="enable-background:new 0 0 500 122;" xml:space="preserve">
<style type="text/css">
	.st0{fill-rule:evenodd;clip-rule:evenodd;fill:#FFFFFF;}
</style>
<polygon class="st0" points="249.6,15.2 192.1,49.9 192.1,42.1 244.3,15.2 "/>
<path class="st0" d="M401.2,109.4h0.6h0.7h0.7l0.3-0.1l0.3-0.1l0.3-0.1l0.2-0.1l0.2-0.2l0.2-0.2l0.2-0.3l0.2-0.3l0.2-0.4l0.1-0.3
	v-0.2V107l-6.8-16.4h5.4l4.1,11.6l3.8-11.6h5.2l-6.4,15.5l-0.4,1.1l-0.4,1l-0.4,0.9l-0.4,0.7l-0.3,0.6l-0.3,0.5l-0.3,0.4l-0.3,0.3
	l-0.3,0.3l-0.4,0.2l-0.4,0.2l-0.5,0.2l-0.6,0.1l-0.6,0.1h-0.7h-0.8h-1.1h-1.2v-3.3H401.2z M389.7,96.8l0.6-0.1l0.5-0.1l0.4-0.1
	l0.3-0.1l0.2-0.1l0.2-0.1l0.3-0.3l0.1-0.2l0.1-0.2l0.1-0.2v-0.4v-0.2l-0.1-0.2l-0.1-0.2l-0.1-0.1l-0.1-0.2l-0.2-0.1l-0.2-0.1
	l-0.2-0.1l-0.2-0.1l-0.5-0.1l-0.6-0.1h-1.1h-0.4l-0.3,0.1l-0.4,0.1l-0.3,0.1l-0.3,0.1l-0.2,0.2l-0.2,0.2l-0.2,0.3l-0.2,0.3l-0.2,0.4
	l-0.1,0.4h-4.7v-0.5l0.1-0.5l0.1-0.5l0.2-0.4l0.2-0.4l0.2-0.4l0.3-0.3l0.3-0.4l0.3-0.3l0.2-0.2l0.3-0.2l0.3-0.2l0.3-0.2l0.3-0.2
	l0.4-0.2l0.4-0.1l0.4-0.1l0.9-0.2l0.5-0.1l1-0.1h1.1h0.8h0.7l0.7,0.1l0.7,0.1l0.7,0.1l0.7,0.2l0.6,0.2l0.6,0.3l0.3,0.1l0.3,0.2
	l0.3,0.2l0.2,0.2l0.2,0.2l0.2,0.2l0.2,0.2l0.2,0.2l0.2,0.3l0.1,0.3l0.1,0.3l0.1,0.3l0.1,0.3l0.1,0.3v0.3v7.5v1.8v0.4l0.1,0.3
	l0.1,0.3l0.1,0.2l0.1,0.2l0.2,0.1l0.2,0.1l0.2,0.1v0.6h-5.3l-0.2-0.4l-0.1-0.4l-0.1-0.4l-0.1-0.5l-0.5,0.4l-0.6,0.4l-0.6,0.4
	l-0.6,0.3l-0.4,0.2l-0.4,0.2l-0.4,0.1l-0.5,0.1l-0.4,0.1l-0.4,0.1h-0.5h-0.5h-0.6l-0.6-0.1l-0.6-0.1l-0.5-0.1l-0.5-0.2l-0.5-0.2
	l-0.4-0.2l-0.4-0.3l-0.4-0.3l-0.3-0.3l-0.3-0.4l-0.2-0.4l-0.2-0.4l-0.1-0.5l-0.1-0.5v-0.5V102v-0.3l0.1-0.4l0.1-0.3l0.1-0.3l0.1-0.3
	l0.2-0.3l0.3-0.5l0.2-0.2l0.2-0.2l0.3-0.2l0.2-0.2l0.3-0.2l0.3-0.2l0.3-0.2l0.4-0.2l0.4-0.2l0.4-0.1l0.5-0.2l0.5-0.1l0.6-0.1
	l1.3-0.2L389.7,96.8z M392.7,98.7l-0.5,0.2l-0.5,0.2l-0.5,0.2l-0.7,0.1l-1.1,0.2l-0.7,0.1l-0.6,0.2l-0.5,0.1l-0.4,0.2l-0.3,0.2
	l-0.2,0.2l-0.2,0.2l-0.2,0.2l-0.1,0.2l-0.1,0.2l-0.1,0.3v0.5v0.3l0.1,0.2l0.1,0.2l0.1,0.2l0.1,0.2l0.1,0.1l0.2,0.1l0.4,0.2l0.4,0.1
	l0.4,0.1h0.5h0.4h0.4l0.3-0.1l0.4-0.1l0.3-0.1l0.4-0.1l0.3-0.2l0.3-0.2l0.3-0.2l0.3-0.3l0.2-0.3l0.2-0.3l0.2-0.4l0.1-0.4l0.1-0.5
	v-0.5v-1.5H392.7z M367.3,90.6v10.1l0.1,0.6l0.1,0.4l0.1,0.2l0.1,0.2l0.2,0.3l0.2,0.3l0.3,0.2l0.3,0.2l0.3,0.1l0.4,0.1h0.4h0.5h0.6
	l0.5-0.1l0.5-0.2l0.4-0.2l0.4-0.2l0.4-0.3l0.3-0.4l0.2-0.4l0.1-0.2l0.1-0.3l0.1-0.3l0.1-0.3l0.1-0.7V99v-8.6h4.9v15.7h-4.7v-2.2
	l-0.3,0.4l-0.3,0.3l-0.4,0.3l-0.6,0.4l-0.6,0.3l-0.5,0.3l-0.5,0.2l-0.6,0.2l-0.6,0.1l-0.6,0.1h-1.2h-0.5h-0.5l-0.4-0.1l-0.4-0.1
	l-0.8-0.3l-0.4-0.1l-0.3-0.2l-0.3-0.2l-0.3-0.2l-0.3-0.2l-0.2-0.3l-0.3-0.3l-0.2-0.3l-0.2-0.3l-0.2-0.3l-0.2-0.4l-0.2-0.4l-0.1-0.5
	l-0.1-0.5l-0.1-0.6v-0.6v-10H367.3z M352.1,90.6l0.4,0.2l0.4,0.2l0.4,0.2l0.4,0.3l0.3,0.3l0.3,0.4l0.3,0.3l0.3,0.4v-2.3h4.7v14.9
	v0.7v0.7l-0.1,0.6l-0.2,0.6l-0.2,0.5l-0.2,0.5l-0.2,0.5l-0.3,0.4l-0.3,0.4l-0.3,0.3l-0.3,0.3l-0.4,0.3l-0.4,0.2l-0.4,0.2l-0.5,0.2
	l-0.5,0.2l-0.5,0.2l-0.5,0.1l-0.6,0.1l-0.6,0.1l-0.6,0.1l-0.7,0.1h-0.7h-0.7h-0.9h-0.9l-0.8-0.1l-0.8-0.1l-0.7-0.2l-0.7-0.2
	l-0.6-0.3l-0.6-0.3l-0.5-0.3l-0.5-0.4l-0.4-0.4l-0.3-0.5l-0.3-0.4l-0.2-0.5l-0.2-0.5l-0.1-0.6h5.3l0.1,0.4l0.1,0.3l0.2,0.2l0.2,0.2
	l0.2,0.1l0.2,0.1l0.3,0.1l0.3,0.1l0.4,0.1l0.4,0.1h0.9h0.6l0.6-0.1l0.5-0.1l0.5-0.2l0.4-0.2l0.4-0.2l0.3-0.3l0.3-0.3l0.1-0.3
	l0.1-0.3l0.1-0.3l0.1-0.4l0.1-0.4v-0.5v-0.5V104l-0.4,0.5l-0.4,0.4l-0.4,0.3l-0.4,0.3l-0.4,0.2l-0.4,0.2l-0.4,0.2l-0.5,0.1l-0.5,0.1
	l-0.5,0.1h-0.5h-0.6h-0.9l-0.9-0.1l-0.8-0.2l-0.4-0.1l-0.4-0.1l-0.4-0.1l-0.3-0.2l-0.3-0.2l-0.3-0.2l-0.3-0.2l-0.3-0.2l-0.6-0.5
	l-0.2-0.3l-0.2-0.3l-0.2-0.3l-0.2-0.3l-0.2-0.3l-0.2-0.3l-0.2-0.4l-0.1-0.3l-0.1-0.4l0.3-0.4l-0.2-0.8l-0.1-0.8v-0.9v-0.9l0.1-0.8
	L342,96l0.2-0.7l0.3-0.7l0.4-0.7l0.4-0.7l0.5-0.6l0.3-0.3l0.3-0.3l0.3-0.2l0.3-0.2l0.3-0.2l0.3-0.2L346,91l0.3-0.2l0.8-0.3l0.4-0.1
	l0.4-0.1l0.4-0.1l0.9-0.1h0.5h0.7l0.6,0.1l0.6,0.1L352.1,90.6z M353.7,101.9l0.3-0.3l0.3-0.3l0.2-0.4l0.2-0.4l0.1-0.4l0.1-0.5v-0.5
	v-0.6v-0.6v-0.5l-0.1-0.5l-0.1-0.4l-0.2-0.4l-0.2-0.4l-0.2-0.3l-0.3-0.3l-0.3-0.3l-0.3-0.3l-0.3-0.2l-0.4-0.2l-0.4-0.1l-0.4-0.1
	l-0.4-0.1h-0.5h-0.6l-0.6,0.1l-0.5,0.2l-0.3,0.1l-0.2,0.1l-0.2,0.1l-0.2,0.2l-0.2,0.2l-0.2,0.2l-0.2,0.2l-0.2,0.2l-0.3,0.5l-0.1,0.3
	l-0.1,0.3l-0.1,0.3l-0.1,0.3l-0.1,0.7v0.8v0.7l0.1,0.6l0.2,0.6l0.1,0.3l0.1,0.3l0.3,0.5l0.1,0.2l0.2,0.2l0.2,0.2l0.2,0.2l0.2,0.1
	l0.2,0.1l0.2,0.1l0.2,0.1l0.5,0.2l0.5,0.1h0.6h0.4l0.4-0.1l0.4-0.1l0.4-0.1l0.4-0.2l0.3-0.2l0.3-0.2L353.7,101.9z M327.7,90.6v9.5
	v0.6l0.1,0.6l0.1,0.4l0.2,0.4l0.2,0.3l0.2,0.3l0.6,0.4l0.4,0.1l0.4,0.1l0.9,0.1h0.6l0.6-0.1l0.5-0.2l0.4-0.2l0.4-0.2l0.3-0.3
	l0.3-0.4l0.3-0.4l0.1-0.2l0.1-0.3l0.1-0.3l0.1-0.3l0.1-0.7v-0.7v-8.6h4.9v15.7h-4.7V104l-0.3,0.4l-0.3,0.3L334,105l-0.6,0.4
	l-0.5,0.3l-0.6,0.3l-0.5,0.2l-0.5,0.2l-0.6,0.1l-0.6,0.1h-1.2h-0.5h-0.5l-0.4-0.1l-0.4-0.1l-0.4-0.1l-0.4-0.1l-0.4-0.1l-0.3-0.2
	l-0.3-0.2l-0.3-0.2l-0.3-0.2l-0.3-0.3l-0.2-0.3l-0.2-0.3l-0.2-0.3l-0.2-0.3l-0.2-0.4L323,103l-0.1-0.5l-0.1-0.5l-0.1-0.6v-0.6v-0.6
	v-9.5h5V90.6z M319.9,90.3h0.4v4.2l-0.8-0.1h-1.3l-0.6,0.1l-0.6,0.1l-0.5,0.2l-0.4,0.3l-0.4,0.3l-0.2,0.2l-0.2,0.2l-0.1,0.2
	l-0.2,0.2l-0.1,0.2l-0.1,0.3l-0.1,0.3l-0.1,0.4l-0.1,0.3v0.4V99v7.5h-4.9V90.6h4.7v2.8l0.5-0.7l0.5-0.6l0.5-0.5l0.4-0.4l0.4-0.2
	l0.4-0.2l0.4-0.2l0.4-0.1l0.4-0.1l0.5-0.1h0.5h0.5L319.9,90.3z M286.9,85.1h5.3v13v0.5v0.5v0.4l0.1,0.4l0.1,0.4l0.1,0.4l0.1,0.3
	l0.2,0.3l0.1,0.2l0.1,0.2l0.2,0.2l0.2,0.2l0.2,0.2l0.2,0.2l0.3,0.1l0.2,0.1l0.5,0.2l0.6,0.1l0.7,0.1h0.8h0.8l0.7-0.1l0.6-0.1
	l0.6-0.2l0.3-0.1l0.2-0.1l0.2-0.2l0.2-0.2l0.2-0.2l0.2-0.2l0.2-0.2l0.1-0.2l0.1-0.3l0.1-0.3l0.1-0.4l0.1-0.4l0.1-0.4l0.1-0.4v-0.5
	V85.1h5.3V99l-0.1,0.8l-0.1,0.7l-0.1,0.7l-0.2,0.6l-0.2,0.6l-0.3,0.5l-0.3,0.5l-0.3,0.4l-0.3,0.4l-0.4,0.4l-0.4,0.3l-0.4,0.3
	l-0.4,0.3l-0.5,0.3l-0.5,0.2l-0.6,0.2l-0.6,0.2l-0.6,0.2l-0.7,0.1l-0.7,0.1l-0.8,0.1h-0.8H297h-0.8h-0.8l-0.8-0.1l-0.7-0.1l-0.7-0.1
	l-0.6-0.2l-0.6-0.2l-0.6-0.2l-0.5-0.2l-0.5-0.3l-0.5-0.3l-0.4-0.3l-0.4-0.3l-0.4-0.4l-0.4-0.4l-0.3-0.4l-0.3-0.5l-0.3-0.5l-0.2-0.6
	l-0.2-0.6l-0.1-0.7l-0.1-0.7l-0.1-0.8v-0.8V85.1H286.9z M272,106.4h-4.9V85.1h4.9V106.4z M259.8,91l0.5,0.2l0.4,0.3l0.4,0.2l0.4,0.3
	l0.4,0.3l0.3,0.3l0.3,0.3l0.3,0.4l0.3,0.4l0.3,0.4l0.2,0.4l0.2,0.4l0.2,0.4l0.1,0.4l0.1,0.4l0.1,0.5l0.1,0.6l0.1,0.7v0.9v1h-12.8
	l0.1,0.6l0.1,0.5l0.2,0.5l0.2,0.4l0.3,0.4l0.3,0.4l0.3,0.3l0.4,0.3l0.3,0.2l0.3,0.1l0.3,0.1l0.3,0.1l0.3,0.1l0.3,0.1h0.3h0.3h0.4
	h0.3h0.3l0.3-0.1l0.3-0.1l0.3-0.1l0.5-0.3l0.3-0.2l0.2-0.2l0.2-0.3l0.2-0.3h5l-0.1,0.4l-0.1,0.3l-0.1,0.4l-0.2,0.3l-0.2,0.4
	l-0.3,0.3l-0.3,0.4l-0.3,0.3l-0.3,0.3l-0.3,0.3l-0.3,0.2l-0.3,0.2l-0.4,0.2l-0.4,0.2l-0.4,0.2l-0.4,0.2l-0.4,0.1l-0.4,0.1l-0.4,0.1
	l-0.5,0.1l-0.5,0.1l-0.5,0.1h-1.1h-0.9l-0.8-0.1l-0.8-0.2l-0.8-0.2l-0.8-0.2l-0.7-0.4l-0.7-0.4l-0.7-0.4l-0.3-0.3l-0.3-0.3l-0.3-0.3
	l-0.2-0.3l-0.3-0.4l-0.2-0.3l-0.2-0.3l-0.2-0.4l-0.2-0.4l-0.1-0.4l-0.1-0.4l-0.1-0.4l-0.1-0.5l-0.1-0.5v-0.5v-1.1v-0.5l0.1-0.5
	l0.1-0.5l0.1-0.4l0.1-0.4l0.3-0.8l0.2-0.4l0.2-0.3l0.2-0.4l0.2-0.3l0.2-0.3l0.3-0.3l0.6-0.6l0.3-0.3l0.3-0.2l0.4-0.3l0.3-0.2
	l0.4-0.2l0.3-0.2l0.4-0.2l0.4-0.2l0.4-0.1l0.4-0.1l0.9-0.2l0.9-0.1h1h0.6l0.5,0.1h0.5l0.5,0.1l0.5,0.1l0.5,0.1l0.5,0.2L259.8,91z
	 M253,94.5l-0.2,0.2l-0.2,0.2l-0.2,0.3l-0.2,0.3l-0.1,0.3l-0.1,0.3l-0.1,0.3l-0.1,0.4h7.6v-0.4l-0.1-0.4l-0.1-0.4l-0.1-0.3l-0.2-0.3
	l-0.2-0.3l-0.2-0.2l-0.3-0.2l-0.3-0.2l-0.3-0.2l-0.3-0.2l-0.3-0.1l-0.3-0.1l-0.4-0.1l-0.3-0.1h-0.8l-0.4,0.1l-0.3,0.1l-0.3,0.1
	l-0.3,0.1l-0.3,0.2l-0.3,0.2L253,94.5z M239.1,102.1l0.3-0.4l0.2-0.3l0.2-0.4l0.1-0.4l0.1-0.4l0.1-0.4v-0.5v-0.5v-0.7l-0.1-0.6
	l-0.2-0.6l-0.2-0.5l-0.2-0.5l-0.3-0.4l-0.4-0.4l-0.4-0.3l-0.6-0.3l-0.6-0.3L237,94l-0.3-0.1h-0.3h-0.9L235,94l-0.4,0.1l-0.4,0.1
	l-0.4,0.2l-0.3,0.3l-0.3,0.3l-0.3,0.3l-0.2,0.4l-0.2,0.3l-0.2,0.4l-0.3,0.8l-0.1,0.5v0.4v0.5v0.5v0.5l0.1,0.5l0.1,0.4l0.1,0.4
	l0.2,0.4l0.2,0.3l0.3,0.4l0.3,0.3l0.3,0.3l0.3,0.2l0.4,0.2l0.4,0.1l0.4,0.1l0.4,0.1h0.5h0.5l0.5-0.1l0.4-0.1l0.4-0.1l0.4-0.2
	l0.3-0.2l0.3-0.3L239.1,102.1z M237.9,90.9l0.3,0.2l0.3,0.2l0.3,0.2l0.3,0.2l0.3,0.2l0.3,0.2l0.2,0.3l0.2,0.3v-7.5h4.9v21.2h-4.7
	v-2.2l-0.3,0.3l-0.3,0.3l-0.6,0.6l-0.3,0.2l-0.3,0.2l-0.3,0.2l-0.3,0.2l-0.3,0.1l-0.4,0.2l-0.4,0.1l-0.4,0.1l-0.4,0.1l-0.4,0.1H235
	h-0.5h-0.8l-0.8-0.1l-0.7-0.2l-0.7-0.3l-0.3-0.1l-0.4-0.2l-0.6-0.4l-0.6-0.4l-0.6-0.5l-0.3-0.3l-0.3-0.3l-0.2-0.3l-0.2-0.3l-0.2-0.3
	l-0.2-0.3l-0.2-0.4l-0.2-0.3l-0.1-0.4l-0.1-0.4l-0.2-0.8l-0.1-0.8V99v-1l0.1-0.9l0.1-0.4l0.1-0.4l0.1-0.4l0.1-0.4l0.3-0.8l0.2-0.3
	l0.2-0.3l0.2-0.4l0.3-0.3l0.2-0.3l0.6-0.6l0.6-0.5l0.3-0.2l0.3-0.2l0.3-0.2l0.4-0.2l0.4-0.1l0.4-0.2l0.4-0.1l0.4-0.1l0.4-0.1
	l0.4-0.1l1.3-0.1l0.8,0.1h0.4l0.4,0.1l0.4,0.1l0.3,0.1l0.4,0.1L237.9,90.9z"/>
<polygon class="st0" points="192.1,106.7 97.9,106.7 192.1,49.9 192.1,42.1 67.1,106.7 0,106.7 192.1,9.2 "/>
<path class="st0" d="M478.5,68.4l0.1,0.6l0.1,0.5l0.1,0.5l0.1,0.4l0.2,0.4l0.2,0.4l0.2,0.3l0.2,0.3l0.2,0.2l0.2,0.2l0.2,0.2l0.3,0.2
	l0.3,0.2l0.4,0.1l0.3,0.2l0.4,0.1l0.8,0.2l0.9,0.2l1,0.1h1h0.6h0.6l0.5-0.1l0.5-0.1l0.5-0.1l0.9-0.3l0.4-0.2l0.3-0.2l0.3-0.2
	l0.2-0.3l0.2-0.3l0.2-0.3l0.1-0.3l0.1-0.3v-0.4v-0.4l-0.1-0.4l-0.1-0.3l-0.1-0.3l-0.2-0.3l-0.2-0.3l-0.2-0.2l-0.3-0.2l-0.4-0.2
	l-0.6-0.3l-0.8-0.3l-1-0.3l-1.2-0.3l-1.4-0.4l-3.5-0.9l-1.4-0.4l-1.3-0.4l-1.1-0.4l-1-0.4l-1-0.5l-0.8-0.5l-0.4-0.3l-0.3-0.3
	l-0.3-0.2l-0.3-0.3l-0.3-0.3l-0.2-0.3l-0.3-0.3l-0.2-0.3l-0.2-0.3l-0.2-0.3l-0.2-0.4l-0.2-0.4l-0.1-0.4l-0.1-0.4L471,58l-0.1-0.4
	l-0.1-0.4l-0.1-0.4v-1v-0.6v-0.6l0.1-0.5l0.1-0.6L471,53l0.2-0.5l0.2-0.5l0.2-0.5l0.3-0.5l0.3-0.5l0.3-0.5l0.3-0.5l0.4-0.4l0.4-0.4
	l0.4-0.4l0.4-0.4l0.5-0.4l0.5-0.4l0.5-0.3l0.5-0.3l1.1-0.6l0.6-0.3l0.6-0.2l0.6-0.2L480,45l0.7-0.2l0.7-0.1l0.8-0.1l0.8-0.1l0.8-0.1
	h1.6h0.8l0.7,0.1l0.7,0.1l0.7,0.1l0.7,0.1l0.7,0.1l0.6,0.2l0.6,0.2l0.6,0.2l0.6,0.2l0.5,0.2l0.6,0.2l0.5,0.3l0.5,0.3l0.5,0.3
	l0.5,0.3l0.5,0.4l0.4,0.4l0.4,0.4l0.3,0.4l0.4,0.5l0.3,0.5l0.3,0.5l0.3,0.6l0.3,0.6l0.2,0.6l0.2,0.7l0.2,0.7l0.3,1.5l0.1,0.8h-8.7
	l-0.1-0.4l-0.1-0.4l-0.1-0.3l-0.1-0.3l-0.1-0.4l-0.2-0.3l-0.2-0.3l-0.2-0.3l-0.2-0.2l-0.2-0.2l-0.2-0.2l-0.2-0.2l-0.5-0.3L488,52
	l-0.3-0.1l-0.6-0.2l-0.7-0.1l-0.8-0.1h-0.8h-0.7l-0.6,0.1l-0.6,0.1l-0.5,0.1l-0.5,0.1l-0.4,0.2l-0.3,0.2l-0.4,0.2l-0.3,0.2l-0.2,0.2
	l-0.2,0.3l-0.2,0.3l-0.1,0.3l-0.1,0.3l-0.1,0.3v0.7l0.1,0.4l0.1,0.3l0.2,0.3l0.2,0.3l0.2,0.2l0.3,0.2L481,57l0.4,0.2l0.6,0.2
	l0.8,0.3l1,0.3l1.2,0.3l1.4,0.4l3.5,0.8l1.2,0.3l1.2,0.4l1.1,0.4l1,0.4l0.9,0.5l0.4,0.3l0.4,0.3l0.4,0.3l0.4,0.3l0.3,0.3l0.4,0.3
	l0.3,0.3l0.3,0.3l0.3,0.4l0.2,0.3l0.2,0.4l0.2,0.3l0.2,0.4l0.2,0.4l0.2,0.4l0.1,0.4l0.1,0.4l0.1,0.4l0.1,0.4L500,68v0.4v1.1
	l-0.1,0.6l-0.1,0.6l-0.1,0.6l-0.1,0.6l-0.2,0.5l-0.2,0.5l-0.2,0.5l-0.3,0.5l-0.3,0.5l-0.3,0.5l-0.3,0.5l-0.3,0.5l-0.4,0.4l-0.4,0.4
	l-0.4,0.4l-0.5,0.4l-0.5,0.4l-0.5,0.3l-0.5,0.3l-0.6,0.3l-0.6,0.3l-0.7,0.2l-0.7,0.2l-0.7,0.2l-0.8,0.2l-0.8,0.2l-0.8,0.1l-0.9,0.1
	l-0.9,0.1h-0.9H484h-0.9l-0.9-0.1l-0.9-0.1l-0.8-0.1l-0.8-0.2l-0.8-0.2l-0.7-0.2l-0.7-0.2l-0.7-0.2l-0.6-0.3l-0.6-0.3l-0.6-0.3
	l-0.5-0.3l-0.5-0.4l-0.5-0.4l-0.5-0.4l-0.4-0.4l-0.4-0.5l-0.4-0.5l-0.3-0.5l-0.3-0.5l-0.2-0.5l-0.3-0.5l-0.2-0.6l-0.2-0.5l-0.2-0.6
	L470,71l-0.1-0.6l-0.1-0.6v-0.6v-0.6h8.7V68.4z M463.2,75.2l-0.5,0.6l-0.6,0.6l-0.6,0.6l-0.6,0.5l-0.7,0.5l-0.7,0.4l-0.8,0.4
	l-0.8,0.4l-0.8,0.3l-0.9,0.3l-0.9,0.2l-0.9,0.2l-1,0.1l-1,0.1l-1,0.1h-2.1l-1-0.1l-1-0.1l-0.9-0.1l-0.9-0.2l-0.9-0.2l-0.9-0.3
	l-0.8-0.3l-0.8-0.4l-0.8-0.4l-0.7-0.4l-0.7-0.5l-0.6-0.5l-0.6-0.6l-0.6-0.6l-0.6-0.6l-0.5-0.7l-0.5-0.7l-0.4-0.7l-0.4-0.7l-0.4-0.7
	l-0.3-0.8l-0.3-0.8l-0.3-0.8l-0.2-0.8l-0.2-0.8l-0.2-0.8l-0.2-0.9l-0.1-0.9l-0.1-0.9v-0.9v-0.9v-0.9v-0.9l0.1-0.9l0.1-0.9l0.2-0.9
	L434,57l0.2-0.8l0.2-0.8l0.3-0.8l0.3-0.8l0.3-0.8l0.4-0.7l0.4-0.7l0.4-0.7l0.5-0.7l0.5-0.7l0.6-0.7l0.6-0.6l0.6-0.6l0.6-0.5l0.7-0.5
	l0.7-0.4l0.8-0.4l0.8-0.3l0.8-0.3l0.9-0.3l0.9-0.2l0.9-0.2l0.9-0.2l1-0.1l1-0.1h1.1h1l1,0.1l1,0.1l1,0.2l0.9,0.2l0.9,0.2l0.9,0.3
	l0.8,0.3l0.8,0.3l0.8,0.4l0.7,0.4l0.7,0.5l0.6,0.5l0.6,0.6l0.6,0.6l0.5,0.7l0.5,0.7l0.5,0.7l0.4,0.7l0.4,0.7l0.3,0.7l0.4,0.8
	l0.3,0.8l0.3,0.8l0.3,0.8l0.2,0.8l0.2,0.9l0.2,0.9l0.1,0.9l0.1,0.9l0.1,0.9v1.9l-0.1,0.9l-0.1,0.9l-0.1,0.9L467,67l-0.2,0.8
	l-0.2,0.8l-0.3,0.8l-0.3,0.8l-0.3,0.8l-0.4,0.8l-0.3,0.7l-0.4,0.7l-0.4,0.7l-0.5,0.7L463.2,75.2z M456.3,70.2l0.3-0.4l0.2-0.3
	l0.2-0.4l0.2-0.4l0.2-0.4l0.2-0.5l0.2-0.4l0.1-0.5l0.1-0.5l0.1-0.5l0.2-1.1l0.1-1.2v-1.2v-1.2l-0.1-1.2l-0.2-1.1l-0.1-0.5l-0.1-0.5
	l-0.1-0.5l-0.2-0.5l-0.2-0.4l-0.2-0.4l-0.2-0.4l-0.2-0.4l-0.2-0.3l-0.3-0.4l-0.3-0.3l-0.3-0.3l-0.3-0.3l-0.3-0.3l-0.3-0.3l-0.3-0.2
	l-0.4-0.2l-0.3-0.2l-0.4-0.2L453,52l-0.4-0.1l-0.4-0.1l-0.4-0.1l-0.4-0.1h-0.5H450h-0.5l-0.4,0.1l-0.4,0.1l-0.4,0.1l-0.4,0.1
	l-0.4,0.2l-0.4,0.2l-0.3,0.2l-0.4,0.2l-0.3,0.2l-0.3,0.3l-0.6,0.6l-0.3,0.3l-0.3,0.3l-0.2,0.4l-0.3,0.3l-0.2,0.4l-0.2,0.4l-0.2,0.4
	l-0.2,0.4l-0.2,0.5l-0.1,0.5l-0.1,0.5l-0.1,0.5l-0.2,1.1l-0.1,1.2v1.2v1.2l0.1,1.2l0.2,1.1l0.1,0.5l0.1,0.5l0.1,0.5l0.2,0.4l0.2,0.5
	l0.2,0.4l0.2,0.4l0.2,0.4l0.3,0.3l0.2,0.4l0.9,0.9l0.3,0.3l0.3,0.3l0.3,0.2l0.4,0.2l0.3,0.2l0.4,0.2l0.4,0.1l0.4,0.1l0.4,0.1
	l0.4,0.1l0.4,0.1h0.5h0.5h0.4h0.5l0.4-0.1l0.4-0.1l0.4-0.1l0.4-0.1l0.4-0.1l0.4-0.2l0.3-0.2l0.4-0.2l0.3-0.2l0.6-0.5l0.6-0.6
	L456.3,70.2z M420.8,45.2h8.8v34.1h-8.8V45.2z M429.6,41.1h-8.8v-8.2h8.8V41.1z M413.1,47.2l0.4,0.3l0.4,0.4l0.4,0.4l0.3,0.4
	l0.3,0.5l0.3,0.5l0.3,0.5l0.2,0.5l0.2,0.6L416,52l0.1,0.7l0.1,0.7l0.1,0.7l0.1,0.7v0.8v0.8v23h-8.9V57.9v-0.6l-0.1-0.6l-0.1-0.5
	l-0.1-0.5l-0.1-0.4l-0.1-0.4l-0.2-0.4l-0.2-0.3l-0.2-0.3l-0.2-0.3l-0.2-0.3l-0.3-0.2l-0.3-0.2l-0.3-0.2l-0.3-0.2l-0.3-0.1l-0.3-0.2
	L404,52l-0.3-0.1l-0.4-0.1l-0.4-0.1h-0.4h-1l-0.5,0.1l-0.5,0.1L400,52l-0.5,0.2l-0.4,0.2l-0.4,0.2l-0.4,0.2l-0.4,0.2l-0.3,0.3
	l-0.3,0.3L397,54l-0.3,0.4l-0.2,0.4l-0.2,0.4l-0.2,0.5l-0.2,0.5l-0.2,0.5l-0.2,0.6l-0.1,0.6l-0.1,0.7l-0.1,0.7L395,60v19.3h-8.7v-34
	h8.4v4.9l0.4-0.6l0.4-0.6l0.4-0.5l0.4-0.5l0.4-0.4l0.4-0.4l0.4-0.3l0.4-0.3l0.3-0.3l0.3-0.2l0.4-0.2l0.4-0.2l0.4-0.2l0.4-0.2
	l0.8-0.3l0.9-0.2l0.9-0.2l1-0.1h1h0.6h0.6l0.6,0.1l0.6,0.1l0.6,0.1l0.5,0.1l0.6,0.2l0.5,0.2l0.5,0.2l0.5,0.2l0.5,0.2l0.5,0.3
	l0.9,0.6l0.4,0.3L413.1,47.2z M372.3,45.2h8.8v34.1h-8.8V45.2z M381,41.1h-8.8v-8.2h8.8V41.1z M360.6,45.3l0.5,0.2l0.5,0.3l0.5,0.3
	l0.5,0.4l0.5,0.4l0.5,0.4l0.4,0.5l0.4,0.5l0.4,0.5l0.3,0.5l0.3,0.5l0.3,0.5l0.2,0.6l0.2,0.6l0.2,0.6l0.1,0.6l0.2,1l0.1,1.1v1.4v1.6
	l-0.1,21.5h-8.9V57.1v-0.4l-0.1-0.4l-0.1-0.4l-0.1-0.4l-0.1-0.3l-0.1-0.4l-0.1-0.3l-0.3-0.6l-0.2-0.3l-0.2-0.2l-0.2-0.2L356,53
	l-0.2-0.2l-0.3-0.2l-0.3-0.1l-0.3-0.1l-0.3-0.1l-0.3-0.1l-0.4-0.1h-0.3h-0.4h-0.8H352l-0.4,0.1l-0.4,0.1l-0.4,0.1l-0.4,0.1l-0.3,0.2
	l-0.3,0.2l-0.3,0.2l-0.3,0.2l-0.3,0.2l-0.3,0.3l-0.2,0.3l-0.2,0.4l-0.2,0.3l-0.2,0.4l-0.2,0.4l-0.2,0.5l-0.1,0.5l-0.1,0.5l-0.1,0.5
	l-0.1,0.5v0.5v20.9h-8.7V59v-0.7v-0.7V57l-0.1-0.6l-0.1-0.5l-0.1-0.5l-0.1-0.4l-0.2-0.4l-0.1-0.3l-0.2-0.3l-0.2-0.3l-0.2-0.2
	l-0.2-0.2l-0.2-0.2l-0.3-0.2l-0.3-0.2l-0.2-0.2l-0.3-0.1l-0.3-0.1l-0.3-0.1l-0.3-0.1h-0.4h-0.4H333h-0.4h-0.4l-0.4,0.1l-0.4,0.1
	l-0.3,0.1l-0.4,0.1l-0.3,0.2l-0.3,0.2l-0.3,0.2l-0.3,0.2l-0.2,0.2l-0.2,0.2l-0.2,0.3l-0.2,0.3l-0.2,0.3l-0.2,0.4l-0.2,0.4l-0.1,0.5
	l-0.1,0.5l-0.1,0.5l-0.1,0.6v0.6v21.2H319v-34h8.4v4.9l0.4-0.6l0.4-0.6l0.4-0.5L329,48l0.3-0.5l0.4-0.4l0.4-0.3l0.3-0.3l0.3-0.3
	l0.4-0.2l0.3-0.2l0.3-0.2l0.4-0.2l0.4-0.2l0.8-0.3l0.9-0.2l0.9-0.2l0.9-0.1h1h1l0.9,0.1l0.9,0.2l0.8,0.2l0.7,0.2l0.7,0.3l0.7,0.4
	l0.6,0.4l0.5,0.4l0.4,0.4l0.4,0.5l0.3,0.5l0.4,0.5l0.3,0.6l0.3,0.6l0.3,0.6l0.4-0.7l0.5-0.7l0.5-0.6l0.5-0.6l0.5-0.5l0.6-0.5
	l0.6-0.4l0.6-0.4l0.7-0.3l0.7-0.3l0.7-0.2l0.7-0.2l0.8-0.2l0.8-0.1l0.8-0.1h0.8h0.5l0.5,0.1l0.5,0.1l0.5,0.1l0.5,0.1l0.5,0.1
	l0.5,0.2L360.6,45.3z M292.8,45.2v21.3v0.7v0.6l0.1,0.6l0.1,0.5l0.1,0.5l0.2,0.4l0.2,0.4l0.2,0.3l0.2,0.3L294,71l0.2,0.3l0.2,0.2
	l0.3,0.2l0.3,0.2l0.3,0.2l0.3,0.2l0.3,0.1l0.3,0.1l0.4,0.1l0.4,0.1h0.4l0.8,0.1h0.6h0.5l0.5-0.1l0.5-0.1l0.4-0.1l0.4-0.2l0.4-0.2
	l0.4-0.2l0.4-0.3l0.4-0.3L303,71l0.3-0.3l0.3-0.4l0.3-0.4l0.2-0.4l0.2-0.5l0.2-0.5l0.2-0.6l0.2-0.6l0.1-0.6l0-0.7l0.1-0.7v-0.8V45.2
	h8.8v34.1h-8.4v-4.8l-0.6,1l-0.3,0.4l-0.2,0.3l-0.3,0.3l-0.3,0.3l-0.5,0.4l-0.5,0.4l-0.5,0.4l-0.5,0.3l-0.5,0.3l-0.5,0.3l-0.5,0.2
	l-0.5,0.2l-0.5,0.2l-0.5,0.1l-0.5,0.1l-0.5,0.1l-0.6,0.1l-0.6,0.1H296h-0.6h-0.9l-0.9-0.1l-0.8-0.1l-0.8-0.2l-0.8-0.2l-0.7-0.2
	l-0.7-0.3l-0.6-0.3l-0.6-0.4l-0.6-0.4l-0.5-0.4l-0.5-0.5l-0.4-0.5l-0.4-0.6l-0.4-0.6l-0.3-0.7l-0.3-0.8l-0.3-0.9l-0.3-1l-0.2-1.1
	l-0.2-1.2l-0.1-1.2L284,67v-1.4V45.2H292.8z M279.4,79.3h-8.7V33.2h8.7V79.3z M242.8,33.2h10.6l15.9,46.2h-10.2l-2.9-9.5h-16.5
	l-3.1,9.5h-9.8L242.8,33.2z M242.2,61.9h11.4L248,43.7L242.2,61.9z"/>
</svg>
